<mxfile host="65bd71144e">
    <diagram id="ztWzVDwUu5ihPoLghyrI" name="Page-1">
        <mxGraphModel dx="987" dy="834" grid="1" gridSize="10" guides="1" tooltips="1" connect="1" arrows="1" fold="1" page="1" pageScale="1" pageWidth="850" pageHeight="1100" math="0" shadow="0">
            <root>
                <mxCell id="0"/>
                <mxCell id="1" parent="0"/>
                <mxCell id="2" value="" style="whiteSpace=wrap;html=1;aspect=fixed;" vertex="1" parent="1">
                    <mxGeometry x="27.5" y="40" width="540" height="540" as="geometry"/>
                </mxCell>
                <mxCell id="7" value="" style="ellipse;whiteSpace=wrap;html=1;aspect=fixed;" vertex="1" parent="1">
                    <mxGeometry x="60" y="160" width="30" height="30" as="geometry"/>
                </mxCell>
                <mxCell id="8" value="" style="ellipse;whiteSpace=wrap;html=1;aspect=fixed;" vertex="1" parent="1">
                    <mxGeometry x="60" y="260" width="30" height="30" as="geometry"/>
                </mxCell>
                <mxCell id="11" value="Home&lt;br&gt;button" style="text;html=1;strokeColor=none;fillColor=none;align=center;verticalAlign=middle;whiteSpace=wrap;rounded=0;" vertex="1" parent="1">
                    <mxGeometry x="27.5" y="120" width="95" height="30" as="geometry"/>
                </mxCell>
                <mxCell id="12" value="Log&lt;br&gt;button" style="text;html=1;strokeColor=none;fillColor=none;align=center;verticalAlign=middle;whiteSpace=wrap;rounded=0;" vertex="1" parent="1">
                    <mxGeometry x="45" y="220" width="60" height="30" as="geometry"/>
                </mxCell>
                <mxCell id="13" value="" style="rounded=1;whiteSpace=wrap;html=1;" vertex="1" parent="1">
                    <mxGeometry x="150" y="90" width="377.5" height="240" as="geometry"/>
                </mxCell>
                <mxCell id="14" value="Mon&amp;nbsp; &amp;nbsp; &amp;nbsp;Tue&amp;nbsp; &amp;nbsp; &amp;nbsp;Wed&amp;nbsp; &amp;nbsp; &amp;nbsp;Thurs&amp;nbsp; &amp;nbsp; &amp;nbsp;Fri&amp;nbsp; &amp;nbsp; &amp;nbsp;Sat&amp;nbsp; &amp;nbsp; &amp;nbsp;Sun" style="text;html=1;strokeColor=none;fillColor=none;align=center;verticalAlign=middle;whiteSpace=wrap;rounded=0;" vertex="1" parent="1">
                    <mxGeometry x="148.75" y="100" width="380" height="30" as="geometry"/>
                </mxCell>
                <mxCell id="15" value="&amp;nbsp; &amp;nbsp; &amp;nbsp; &amp;nbsp; &amp;nbsp; &amp;nbsp; &amp;nbsp; &amp;nbsp; &amp;nbsp; &amp;nbsp; &amp;nbsp;2&amp;nbsp; &amp;nbsp; &amp;nbsp; &amp;nbsp; &amp;nbsp; 3&amp;nbsp; &amp;nbsp; &amp;nbsp; &amp;nbsp; 4&amp;nbsp; &amp;nbsp; &amp;nbsp; &amp;nbsp; 5" style="text;html=1;strokeColor=none;fillColor=none;align=center;verticalAlign=middle;whiteSpace=wrap;rounded=0;" vertex="1" parent="1">
                    <mxGeometry x="249" y="140" width="220" height="30" as="geometry"/>
                </mxCell>
                <mxCell id="17" value="âˆš" style="ellipse;whiteSpace=wrap;html=1;aspect=fixed;" vertex="1" parent="1">
                    <mxGeometry x="290" y="140" width="30" height="30" as="geometry"/>
                </mxCell>
                <mxCell id="20" value="" style="rounded=1;whiteSpace=wrap;html=1;" vertex="1" parent="1">
                    <mxGeometry x="150" y="350" width="230" height="110" as="geometry"/>
                </mxCell>
                <mxCell id="21" value="Monthly Limit: $ 100" style="text;html=1;strokeColor=none;fillColor=none;align=center;verticalAlign=middle;whiteSpace=wrap;rounded=0;" vertex="1" parent="1">
                    <mxGeometry x="410" y="400" width="90" height="30" as="geometry"/>
                </mxCell>
                <mxCell id="22" value="2" style="text;html=1;strokeColor=none;fillColor=none;align=center;verticalAlign=middle;whiteSpace=wrap;rounded=0;" vertex="1" parent="1">
                    <mxGeometry x="170" y="360" width="91" height="50" as="geometry"/>
                </mxCell>
                <mxCell id="23" value="drink this month" style="text;html=1;strokeColor=none;fillColor=none;align=center;verticalAlign=middle;whiteSpace=wrap;rounded=0;" vertex="1" parent="1">
                    <mxGeometry x="180" y="410" width="70" height="30" as="geometry"/>
                </mxCell>
                <mxCell id="24" value="$ 10" style="text;html=1;strokeColor=none;fillColor=none;align=center;verticalAlign=middle;whiteSpace=wrap;rounded=0;" vertex="1" parent="1">
                    <mxGeometry x="275" y="370" width="60" height="30" as="geometry"/>
                </mxCell>
                <mxCell id="25" value="how much you've spent" style="text;html=1;strokeColor=none;fillColor=none;align=center;verticalAlign=middle;whiteSpace=wrap;rounded=0;" vertex="1" parent="1">
                    <mxGeometry x="270" y="410" width="70" height="30" as="geometry"/>
                </mxCell>
                <mxCell id="26" value="" style="rounded=1;whiteSpace=wrap;html=1;" vertex="1" parent="1">
                    <mxGeometry x="400" y="347.5" width="120" height="112.5" as="geometry"/>
                </mxCell>
                <mxCell id="27" value="Monthly Budget" style="text;html=1;strokeColor=none;fillColor=none;align=center;verticalAlign=middle;whiteSpace=wrap;rounded=0;" vertex="1" parent="1">
                    <mxGeometry x="397.5" y="360" width="125" height="30" as="geometry"/>
                </mxCell>
                <mxCell id="28" value="Monthly Limit: $200" style="text;html=1;strokeColor=none;fillColor=none;align=center;verticalAlign=middle;whiteSpace=wrap;rounded=0;" vertex="1" parent="1">
                    <mxGeometry x="410" y="390" width="90" height="30" as="geometry"/>
                </mxCell>
                <mxCell id="29" value="Remaining: $ 190" style="text;html=1;strokeColor=none;fillColor=none;align=center;verticalAlign=middle;whiteSpace=wrap;rounded=0;" vertex="1" parent="1">
                    <mxGeometry x="420" y="420" width="70" height="30" as="geometry"/>
                </mxCell>
                <mxCell id="36" value="" style="rounded=0;whiteSpace=wrap;html=1;" vertex="1" parent="1">
                    <mxGeometry x="30" y="600" width="360" height="350" as="geometry"/>
                </mxCell>
                <mxCell id="40" value="" style="ellipse;whiteSpace=wrap;html=1;aspect=fixed;" vertex="1" parent="1">
                    <mxGeometry x="60" y="347.5" width="30" height="30" as="geometry"/>
                </mxCell>
                <mxCell id="41" value="History&lt;br&gt;button" style="text;html=1;strokeColor=none;fillColor=none;align=center;verticalAlign=middle;whiteSpace=wrap;rounded=0;" vertex="1" parent="1">
                    <mxGeometry x="45" y="310" width="60" height="30" as="geometry"/>
                </mxCell>
                <mxCell id="42" value="Log form" style="text;html=1;strokeColor=none;fillColor=none;align=center;verticalAlign=middle;whiteSpace=wrap;rounded=0;" vertex="1" parent="1">
                    <mxGeometry x="180" y="610" width="60" height="30" as="geometry"/>
                </mxCell>
                <mxCell id="43" value="Home" style="text;html=1;strokeColor=none;fillColor=none;align=center;verticalAlign=middle;whiteSpace=wrap;rounded=0;" vertex="1" parent="1">
                    <mxGeometry x="290" y="50" width="60" height="30" as="geometry"/>
                </mxCell>
                <mxCell id="45" value="" style="rounded=0;whiteSpace=wrap;html=1;" vertex="1" parent="1">
                    <mxGeometry x="400" y="600" width="360" height="350" as="geometry"/>
                </mxCell>
                <mxCell id="46" value="History" style="text;html=1;strokeColor=none;fillColor=none;align=center;verticalAlign=middle;whiteSpace=wrap;rounded=0;" vertex="1" parent="1">
                    <mxGeometry x="550" y="610" width="60" height="30" as="geometry"/>
                </mxCell>
                <mxCell id="47" value="" style="rounded=1;whiteSpace=wrap;html=1;" vertex="1" parent="1">
                    <mxGeometry x="420" y="640" width="310" height="30" as="geometry"/>
                </mxCell>
                <mxCell id="48" value="Date" style="text;html=1;strokeColor=none;fillColor=none;align=center;verticalAlign=middle;whiteSpace=wrap;rounded=0;" vertex="1" parent="1">
                    <mxGeometry x="410" y="640" width="60" height="30" as="geometry"/>
                </mxCell>
                <mxCell id="49" value="Location" style="text;html=1;strokeColor=none;fillColor=none;align=center;verticalAlign=middle;whiteSpace=wrap;rounded=0;" vertex="1" parent="1">
                    <mxGeometry x="470" y="640" width="60" height="30" as="geometry"/>
                </mxCell>
                <mxCell id="50" value="Drink Name" style="text;html=1;strokeColor=none;fillColor=none;align=center;verticalAlign=middle;whiteSpace=wrap;rounded=0;" vertex="1" parent="1">
                    <mxGeometry x="540" y="640" width="70" height="30" as="geometry"/>
                </mxCell>
                <mxCell id="51" value="Rating" style="text;html=1;strokeColor=none;fillColor=none;align=center;verticalAlign=middle;whiteSpace=wrap;rounded=0;" vertex="1" parent="1">
                    <mxGeometry x="610" y="640" width="60" height="30" as="geometry"/>
                </mxCell>
                <mxCell id="52" value="Price" style="text;html=1;strokeColor=none;fillColor=none;align=center;verticalAlign=middle;whiteSpace=wrap;rounded=0;" vertex="1" parent="1">
                    <mxGeometry x="670" y="640" width="60" height="30" as="geometry"/>
                </mxCell>
                <mxCell id="53" value="" style="rounded=0;whiteSpace=wrap;html=1;" vertex="1" parent="1">
                    <mxGeometry x="60" y="650" width="300" height="220" as="geometry"/>
                </mxCell>
                <mxCell id="54" value="Details" style="text;html=1;strokeColor=none;fillColor=none;align=center;verticalAlign=middle;whiteSpace=wrap;rounded=0;" vertex="1" parent="1">
                    <mxGeometry x="70" y="660" width="60" height="30" as="geometry"/>
                </mxCell>
                <mxCell id="55" value="&amp;nbsp;Location: _______" style="text;html=1;strokeColor=none;fillColor=none;align=center;verticalAlign=middle;whiteSpace=wrap;rounded=0;" vertex="1" parent="1">
                    <mxGeometry x="60" y="690" width="140" height="30" as="geometry"/>
                </mxCell>
                <mxCell id="56" value="&amp;nbsp;Drink name: _______" style="text;html=1;strokeColor=none;fillColor=none;align=center;verticalAlign=middle;whiteSpace=wrap;rounded=0;" vertex="1" parent="1">
                    <mxGeometry x="70" y="710" width="140" height="30" as="geometry"/>
                </mxCell>
                <mxCell id="57" value="&amp;nbsp;Price: _______" style="text;html=1;strokeColor=none;fillColor=none;align=center;verticalAlign=middle;whiteSpace=wrap;rounded=0;" vertex="1" parent="1">
                    <mxGeometry x="50" y="730" width="140" height="30" as="geometry"/>
                </mxCell>
                <mxCell id="58" value="&amp;nbsp;Date: _______" style="text;html=1;strokeColor=none;fillColor=none;align=center;verticalAlign=middle;whiteSpace=wrap;rounded=0;" vertex="1" parent="1">
                    <mxGeometry x="50" y="750" width="140" height="30" as="geometry"/>
                </mxCell>
                <mxCell id="59" value="&amp;nbsp;Rating: _______" style="text;html=1;strokeColor=none;fillColor=none;align=center;verticalAlign=middle;whiteSpace=wrap;rounded=0;" vertex="1" parent="1">
                    <mxGeometry x="60" y="770" width="140" height="30" as="geometry"/>
                </mxCell>
                <mxCell id="60" value="uploading an image" style="rounded=1;whiteSpace=wrap;html=1;" vertex="1" parent="1">
                    <mxGeometry x="80" y="820" width="110" height="30" as="geometry"/>
                </mxCell>
                <mxCell id="61" value="Photo" style="text;html=1;strokeColor=none;fillColor=none;align=center;verticalAlign=middle;whiteSpace=wrap;rounded=0;" vertex="1" parent="1">
                    <mxGeometry x="70" y="790" width="60" height="30" as="geometry"/>
                </mxCell>
            </root>
        </mxGraphModel>
    </diagram>
</mxfile>